<svg xmlns="http://www.w3.org/2000/svg" width="92" height="34.891" viewBox="0 0 92 34.891"><defs><style>.a{fill:#01c94a;}.b{fill:#fdc606;}.c{fill:#000da8;}.d{fill:#f9120d;}</style></defs><g transform="translate(-106.64 -108.886)"><g transform="translate(107.028 118.522)"><path d="M107.136,123.262a1.407,1.407,0,0,1,1.375-1.41h9.135a9.074,9.074,0,0,1,6.455,2.186,5.484,5.484,0,0,1,1.587,3.951v.07a5.96,5.96,0,0,1-3.914,5.714c2.927.882,5.29,2.574,5.29,5.961v.07c0,4.233-3.562,6.737-8.958,6.737h-9.594a1.407,1.407,0,0,1-1.375-1.411Zm10.052,9.594c3.351,0,5.679-1.517,5.679-4.409v-.071c0-2.433-1.94-4.02-5.467-4.02h-7.513v8.5Zm.988,11.181c3.738,0,6.067-1.658,6.067-4.41v-.07c0-2.68-2.258-4.233-6.561-4.233h-7.8v8.713Z" transform="translate(-107.136 -121.675)"/><path d="M138.112,136.158V123.037a1.393,1.393,0,1,1,2.786,0v12.945c0,5.326,2.857,8.323,7.548,8.323,4.55,0,7.442-2.75,7.442-8.147V123.037a1.393,1.393,0,1,1,2.786,0v12.909c0,7.2-4.126,10.934-10.3,10.934C142.274,146.88,138.112,143.142,138.112,136.158Z" transform="translate(-114.174 -121.626)"/><path d="M170.171,145.342v-.07a1.821,1.821,0,0,1,.494-1.234l15.484-19.681h-14.32a1.252,1.252,0,1,1,0-2.5h16.825a1.275,1.275,0,0,1,1.27,1.2v.07a1.828,1.828,0,0,1-.494,1.234l-15.484,19.681h14.884a1.252,1.252,0,1,1,0,2.5H171.476A1.284,1.284,0,0,1,170.171,145.342Z" transform="translate(-121.452 -121.675)"/><path d="M199.885,145.342v-.07a1.821,1.821,0,0,1,.494-1.234l15.483-19.681H201.543a1.252,1.252,0,1,1,0-2.5h16.825a1.275,1.275,0,0,1,1.27,1.2v.07a1.828,1.828,0,0,1-.494,1.234l-15.484,19.681h14.884a1.252,1.252,0,1,1,0,2.5H201.19A1.284,1.284,0,0,1,199.885,145.342Z" transform="translate(-128.201 -121.675)"/></g><rect class="a" width="18.994" height="2.405" transform="translate(179.521 108.886)"/><rect class="b" width="18.994" height="2.405" transform="translate(155.386 108.886)"/><rect class="c" width="18.994" height="2.405" transform="translate(131.745 108.886)"/><rect class="d" width="18.994" height="2.405" transform="translate(106.64 108.886)"/></g></svg>