<svg xmlns="http://www.w3.org/2000/svg" width="352.57" height="199.225" viewBox="0 0 352.57 199.225"><defs><style>.a{fill:#ff5e63;}</style></defs><g transform="translate(-648.143 -619.253)"><path class="a" d="M937.852,656.648c.376-.31.744-.628,1.116-.942-3.726,67.51-51.836,103.557-109.994,103.557,0,0-82.208.078-93.4-9.608A150.041,150.041,0,0,1,713.7,726.079a7.894,7.894,0,0,0-12.805,9.234,157.479,157.479,0,0,0,10.883,13.114,1.817,1.817,0,0,1-1.314,3.041c-23.13.485-42.314-11.731-42.613-11.924a6.578,6.578,0,0,0-7.2,11.011A98.266,98.266,0,0,0,697.1,763.773s1.713.176,1.817,1.505a1.212,1.212,0,0,1-1.137,1.489c-21.519-1.085-39.491-10.823-39.859-11.025a6.578,6.578,0,0,0-6.4,11.5c1.112.619,22.653,12.416,48.715,12.79.185,0,.371,0,.556,0,0,0,1.674-.1,2,1.357a1.439,1.439,0,0,1-1.262,1.873c-22.617,3.277-42.7-3.144-43.042-3.256a6.579,6.579,0,0,0-4.141,12.489,116.034,116.034,0,0,0,32.1,4.882,106.386,106.386,0,0,0,18.012-1.235,1.386,1.386,0,0,1,1.485.865c.318,1.041-.967,1.414-.967,1.414-15.859,4.234-32.631,4.215-35.7,4.171-.617-.01-.529-.013-.591-.013a5.7,5.7,0,0,0-.261,11.4c.118,0,.445.014.964.021,4.965.072,27.56-.826,46.45-7.053,6.586-1.495,113.137-2.565,113.137-2.565,100.871,1.356,156.549-70.09,156.549-156.549" transform="translate(0 4.48)"/><path class="a" d="M930.264,670.6c-24.977,3.946-50.7-8.937-48.328-25.03,3.554-24.049,60.409-39.169,78.177-11.316S930.264,670.6,930.264,670.6Z" transform="translate(36.628)"/></g></svg>