<svg xmlns="http://www.w3.org/2000/svg" width="377.622" height="214.95" viewBox="0 0 377.622 214.95"><defs><style>.a{fill:#ff5e63;}</style></defs><g transform="translate(-245.15 -619.253)"><path class="a" d="M259.533,647.827c0,84.992,66.026,154.847,149.48,160.981l.039,0c38.162,2.866,126.155.224,135.75,1.906,21.675,10.743,47.543,17.465,48.789,17.784.113.03.228.055.341.078a6.052,6.052,0,0,0,2.673-11.8,298.969,298.969,0,0,1-38.431-13.217.907.907,0,0,1-.607-1.162.849.849,0,0,1,1-.471,83.073,83.073,0,0,0,8.364,2.1c24,4.732,46.651-1.144,47.885-1.473a6.984,6.984,0,0,0-3.593-13.5c-.3.079-26.168,6.719-49.351-.742,0,0-1.549-.378-1.127-1.79a1.7,1.7,0,0,1,1.863-1.24c25.189,2.239,51.057-8.194,52.442-8.762a6.983,6.983,0,0,0-5.3-12.921c-.291.119-22.741,9.139-43.811,7.958,0,0-2.006-.012-1.469-2.23a2.693,2.693,0,0,1,2.459-1.846c21.253-2.61,42.018-13.6,43.251-14.262a6.984,6.984,0,0,0,2.45-10.115,7.167,7.167,0,0,0-9.275-2.073c-9.594,5.1-35.353,15.939-52.19,12.412a3.13,3.13,0,0,1-1.807-4.961,136.371,136.371,0,0,0,13.022-20.85,8.38,8.38,0,0,0-15.1-7.276c-.159.329-13.821,31.77-37.855,41.726-13.966,4.035-88.515,1.053-88.515,1.053-64.41-3.976-113.672-52.507-113.672-115.308" transform="translate(2.773 5.508)"/><path class="a" d="M270.6,672.293c-25.455-2.494-39.71-38.661-4.073-49.887s61.092,9.978,62.11,24.943-17.31,24.943-28.51,24.943Z" transform="translate(0)"/></g></svg>